STARTFONT 2.1
FONT -Monotype-Courier-Bold-R-Normal--14-140-75-75-M-75-iso8859-5
SIZE 14 75 75
FONTBOUNDINGBOX 11 15 -1 -3

STARTPROPERTIES 24
FOUNDRY "Monotype"
FAMILY_NAME "Courier"
WEIGHT_NAME "Bold"
SLANT "R"
SETWIDTH_NAME "Normal"
ADD_STYLE_NAME ""
PIXEL_SIZE 14
POINT_SIZE 140
RESOLUTION_X 75
RESOLUTION_Y 75
SPACING "M"
AVERAGE_WIDTH 75
CHARSET_REGISTRY "iso8859"
CHARSET_ENCODING "5"
FACE_NAME "Courier Bold ISO Latin Cyrillic"
_DEC_DEVICE_FONTNAMES "PS=courier-b-latcyrillic"
COPYRIGHT "Copyright (c) 1994 Monotype Typography Ltd."
CAP_HEIGHT 10
X_HEIGHT 7
WEIGHT 10
QUAD_WIDTH 9
DEFAULT_CHAR 160
FONT_DESCENT 4
FONT_ASCENT 13
ENDPROPERTIES

CHARS 191

STARTCHAR space
ENCODING 32
SWIDTH 600 0
DWIDTH 9 0
BBX 0 0 0 0
BITMAP
ENDCHAR

STARTCHAR exclam
ENCODING 33
SWIDTH 600 0
DWIDTH 9 0
BBX 2 10 3 0
BITMAP
C0
C0
C0
C0
C0
C0
40
00
C0
C0
ENDCHAR

STARTCHAR quotedbl
ENCODING 34
SWIDTH 600 0
DWIDTH 9 0
BBX 5 4 2 6
BITMAP
D8
D8
D8
88
ENDCHAR

STARTCHAR numbersign
ENCODING 35
SWIDTH 600 0
DWIDTH 9 0
BBX 7 12 1 -1
BITMAP
24
24
24
24
FE
48
48
FE
48
48
48
48
ENDCHAR

STARTCHAR dollar
ENCODING 36
SWIDTH 600 0
DWIDTH 9 0
BBX 7 12 1 -1
BITMAP
30
30
7C
EC
C0
78
3C
86
CE
7C
30
30
ENDCHAR

STARTCHAR percent
ENCODING 37
SWIDTH 600 0
DWIDTH 9 0
BBX 6 9 1 0
BITMAP
60
D0
D0
6C
70
98
34
34
18
ENDCHAR

STARTCHAR ampersand
ENCODING 38
SWIDTH 600 0
DWIDTH 9 0
BBX 7 9 1 0
BITMAP
38
7C
60
30
74
DE
DC
7E
36
ENDCHAR

STARTCHAR quoteright
ENCODING 39
SWIDTH 600 0
DWIDTH 9 0
BBX 3 5 2 5
BITMAP
60
60
40
C0
80
ENDCHAR

STARTCHAR parenleft
ENCODING 40
SWIDTH 600 0
DWIDTH 9 0
BBX 4 13 3 -3
BITMAP
10
20
60
60
C0
C0
C0
C0
C0
60
60
20
10
ENDCHAR

STARTCHAR parenright
ENCODING 41
SWIDTH 600 0
DWIDTH 9 0
BBX 4 13 2 -3
BITMAP
80
40
60
60
30
30
30
30
30
60
60
40
80
ENDCHAR

STARTCHAR asterisk
ENCODING 42
SWIDTH 600 0
DWIDTH 9 0
BBX 5 7 2 4
BITMAP
20
20
F8
F8
70
D8
88
ENDCHAR

STARTCHAR plus
ENCODING 43
SWIDTH 600 0
DWIDTH 9 0
BBX 8 8 1 1
BITMAP
18
18
18
FF
FF
18
18
18
ENDCHAR

STARTCHAR comma
ENCODING 44
SWIDTH 600 0
DWIDTH 9 0
BBX 4 4 3 -2
BITMAP
70
60
C0
80
ENDCHAR

STARTCHAR minus
ENCODING 45
SWIDTH 600 0
DWIDTH 9 0
BBX 7 2 1 3
BITMAP
FE
FE
ENDCHAR

STARTCHAR period
ENCODING 46
SWIDTH 600 0
DWIDTH 9 0
BBX 2 2 3 0
BITMAP
C0
C0
ENDCHAR

STARTCHAR slash
ENCODING 47
SWIDTH 600 0
DWIDTH 9 0
BBX 7 13 1 -2
BITMAP
02
06
04
0C
08
18
10
30
20
60
40
C0
40
ENDCHAR

STARTCHAR zero
ENCODING 48
SWIDTH 600 0
DWIDTH 9 0
BBX 7 10 1 0
BITMAP
38
6C
C6
C6
C6
C6
C6
C6
6C
38
ENDCHAR

STARTCHAR one
ENCODING 49
SWIDTH 600 0
DWIDTH 9 0
BBX 6 10 2 0
BITMAP
10
F0
30
30
30
30
30
30
30
FC
ENDCHAR

STARTCHAR two
ENCODING 50
SWIDTH 600 0
DWIDTH 9 0
BBX 7 10 1 0
BITMAP
38
6C
C6
06
0C
18
30
60
E0
FE
ENDCHAR

STARTCHAR three
ENCODING 51
SWIDTH 600 0
DWIDTH 9 0
BBX 7 10 1 0
BITMAP
3C
66
06
06
1C
06
06
06
C6
7C
ENDCHAR

STARTCHAR four
ENCODING 52
SWIDTH 600 0
DWIDTH 9 0
BBX 7 10 1 0
BITMAP
0C
1C
3C
3C
6C
6C
CC
FE
0C
1E
ENDCHAR

STARTCHAR five
ENCODING 53
SWIDTH 600 0
DWIDTH 9 0
BBX 7 10 1 0
BITMAP
FC
C0
C0
F8
CC
06
06
06
CC
78
ENDCHAR

STARTCHAR six
ENCODING 54
SWIDTH 600 0
DWIDTH 9 0
BBX 7 10 1 0
BITMAP
3C
66
C0
C0
DC
E6
C6
C6
C6
7C
ENDCHAR

STARTCHAR seven
ENCODING 55
SWIDTH 600 0
DWIDTH 9 0
BBX 7 10 1 0
BITMAP
FE
FE
04
0C
0C
08
18
18
10
30
ENDCHAR

STARTCHAR eight
ENCODING 56
SWIDTH 600 0
DWIDTH 9 0
BBX 7 10 1 0
BITMAP
7C
C6
C6
C6
7C
C6
C6
C6
C6
7C
ENDCHAR

STARTCHAR nine
ENCODING 57
SWIDTH 600 0
DWIDTH 9 0
BBX 7 10 1 0
BITMAP
7C
C6
C6
C6
C6
CE
76
06
CC
78
ENDCHAR

STARTCHAR colon
ENCODING 58
SWIDTH 600 0
DWIDTH 9 0
BBX 2 7 4 0
BITMAP
C0
C0
00
00
00
C0
C0
ENDCHAR

STARTCHAR semicolon
ENCODING 59
SWIDTH 600 0
DWIDTH 9 0
BBX 4 9 2 -2
BITMAP
30
30
00
00
00
70
60
C0
80
ENDCHAR

STARTCHAR less
ENCODING 60
SWIDTH 600 0
DWIDTH 9 0
BBX 8 9 0 0
BITMAP
01
03
0E
38
E0
70
1C
07
01
ENDCHAR

STARTCHAR equal
ENCODING 61
SWIDTH 600 0
DWIDTH 9 0
BBX 8 5 1 2
BITMAP
FF
FF
00
FF
FF
ENDCHAR

STARTCHAR greater
ENCODING 62
SWIDTH 600 0
DWIDTH 9 0
BBX 8 9 1 0
BITMAP
80
C0
70
1C
07
0E
38
E0
80
ENDCHAR

STARTCHAR question
ENCODING 63
SWIDTH 600 0
DWIDTH 9 0
BBX 7 10 1 0
BITMAP
7C
CE
C6
06
0E
3C
30
00
30
30
ENDCHAR

STARTCHAR at
ENCODING 64
SWIDTH 600 0
DWIDTH 9 0
BBX 6 11 1 -1
BITMAP
78
44
84
8C
BC
A4
B4
9C
80
44
38
ENDCHAR

STARTCHAR A
ENCODING 65
SWIDTH 600 0
DWIDTH 9 0
BBX 9 9 0 0
BITMAP
7800
1C00
3400
3600
3600
7F00
6300
6300
E380
ENDCHAR

STARTCHAR B
ENCODING 66
SWIDTH 600 0
DWIDTH 9 0
BBX 8 9 0 0
BITMAP
FE
63
63
63
7E
63
63
63
FE
ENDCHAR

STARTCHAR C
ENCODING 67
SWIDTH 600 0
DWIDTH 9 0
BBX 8 9 1 0
BITMAP
3D
67
C3
C0
C0
C0
C1
63
3E
ENDCHAR

STARTCHAR D
ENCODING 68
SWIDTH 600 0
DWIDTH 9 0
BBX 8 9 0 0
BITMAP
FC
66
63
63
63
63
63
66
FC
ENDCHAR

STARTCHAR E
ENCODING 69
SWIDTH 600 0
DWIDTH 9 0
BBX 8 9 0 0
BITMAP
FF
63
63
64
7C
64
63
63
FF
ENDCHAR

STARTCHAR F
ENCODING 70
SWIDTH 600 0
DWIDTH 9 0
BBX 8 9 0 0
BITMAP
FF
63
63
64
7C
64
60
60
F8
ENDCHAR

STARTCHAR G
ENCODING 71
SWIDTH 600 0
DWIDTH 9 0
BBX 8 9 1 0
BITMAP
3D
67
C3
C0
CF
C3
C3
67
3E
ENDCHAR

STARTCHAR H
ENCODING 72
SWIDTH 600 0
DWIDTH 9 0
BBX 9 9 0 0
BITMAP
F780
6300
6300
6300
7F00
6300
6300
6300
F780
ENDCHAR

STARTCHAR I
ENCODING 73
SWIDTH 600 0
DWIDTH 9 0
BBX 6 9 2 0
BITMAP
FC
30
30
30
30
30
30
30
FC
ENDCHAR

STARTCHAR J
ENCODING 74
SWIDTH 600 0
DWIDTH 9 0
BBX 9 9 1 0
BITMAP
3F80
0600
0600
0600
0600
C600
C600
EC00
7800
ENDCHAR

STARTCHAR K
ENCODING 75
SWIDTH 600 0
DWIDTH 9 0
BBX 9 9 0 0
BITMAP
F780
6300
6600
6C00
7800
6C00
6600
6300
F380
ENDCHAR

STARTCHAR L
ENCODING 76
SWIDTH 600 0
DWIDTH 9 0
BBX 8 9 0 0
BITMAP
F0
60
60
60
60
63
63
63
FF
ENDCHAR

STARTCHAR M
ENCODING 77
SWIDTH 600 0
DWIDTH 9 0
BBX 9 9 0 0
BITMAP
E380
7700
7700
7F00
7F00
6B00
6B00
6300
F780
ENDCHAR

STARTCHAR N
ENCODING 78
SWIDTH 600 0
DWIDTH 9 0
BBX 9 9 0 0
BITMAP
E780
7300
7300
7B00
6B00
6F00
6700
6300
F300
ENDCHAR

STARTCHAR O
ENCODING 79
SWIDTH 600 0
DWIDTH 9 0
BBX 8 9 1 0
BITMAP
3C
66
C3
C3
C3
C3
C3
66
3C
ENDCHAR

STARTCHAR P
ENCODING 80
SWIDTH 600 0
DWIDTH 9 0
BBX 8 9 1 0
BITMAP
FC
66
63
63
66
7C
60
60
F8
ENDCHAR

STARTCHAR Q
ENCODING 81
SWIDTH 600 0
DWIDTH 9 0
BBX 8 12 1 -3
BITMAP
3C
66
C3
C3
C3
C3
C3
66
3C
11
7F
46
ENDCHAR

STARTCHAR R
ENCODING 82
SWIDTH 600 0
DWIDTH 9 0
BBX 9 9 0 0
BITMAP
FC00
6600
6300
6300
6600
7C00
6600
6300
F180
ENDCHAR

STARTCHAR S
ENCODING 83
SWIDTH 600 0
DWIDTH 9 0
BBX 7 9 1 0
BITMAP
7A
CE
C6
F0
7C
0E
C6
E6
BC
ENDCHAR

STARTCHAR T
ENCODING 84
SWIDTH 600 0
DWIDTH 9 0
BBX 8 9 1 0
BITMAP
FF
DB
DB
18
18
18
18
18
7E
ENDCHAR

STARTCHAR U
ENCODING 85
SWIDTH 600 0
DWIDTH 9 0
BBX 9 9 0 0
BITMAP
F780
6300
6300
6300
6300
6300
6300
6300
3E00
ENDCHAR

STARTCHAR V
ENCODING 86
SWIDTH 600 0
DWIDTH 9 0
BBX 9 9 0 0
BITMAP
F780
6180
6300
3300
3600
3600
1C00
1C00
0800
ENDCHAR

STARTCHAR W
ENCODING 87
SWIDTH 600 0
DWIDTH 9 0
BBX 9 9 0 0
BITMAP
F780
6300
6B00
6B00
7F00
7700
7700
6300
6300
ENDCHAR

STARTCHAR X
ENCODING 88
SWIDTH 600 0
DWIDTH 9 0
BBX 9 9 0 0
BITMAP
F780
6300
3600
1C00
1C00
3E00
3600
6300
F780
ENDCHAR

STARTCHAR Y
ENCODING 89
SWIDTH 600 0
DWIDTH 9 0
BBX 10 9 0 0
BITMAP
F3C0
6180
3300
3300
1E00
0C00
0C00
0C00
3F00
ENDCHAR

STARTCHAR Z
ENCODING 90
SWIDTH 600 0
DWIDTH 9 0
BBX 7 9 1 0
BITMAP
FE
C6
CC
18
30
20
66
C6
FE
ENDCHAR

STARTCHAR bracketleft
ENCODING 91
SWIDTH 600 0
DWIDTH 9 0
BBX 4 13 3 -3
BITMAP
F0
C0
C0
C0
C0
C0
C0
C0
C0
C0
C0
C0
F0
ENDCHAR

STARTCHAR backslash
ENCODING 92
SWIDTH 600 0
DWIDTH 9 0
BBX 8 12 1 -2
BITMAP
C0
60
60
20
30
10
18
08
0C
04
06
03
ENDCHAR

STARTCHAR bracketright
ENCODING 93
SWIDTH 600 0
DWIDTH 9 0
BBX 4 13 2 -3
BITMAP
F0
30
30
30
30
30
30
30
30
30
30
30
F0
ENDCHAR

STARTCHAR asciicircum
ENCODING 94
SWIDTH 600 0
DWIDTH 9 0
BBX 7 5 1 5
BITMAP
10
38
6C
6C
C6
ENDCHAR

STARTCHAR underscore
ENCODING 95
SWIDTH 600 0
DWIDTH 9 0
BBX 9 1 0 -2
BITMAP
FF80
ENDCHAR

STARTCHAR quoteleft
ENCODING 96
SWIDTH 600 0
DWIDTH 9 0
BBX 3 5 4 5
BITMAP
C0
C0
40
60
20
ENDCHAR

STARTCHAR a
ENCODING 97
SWIDTH 600 0
DWIDTH 9 0
BBX 8 7 1 0
BITMAP
7C
06
06
7E
C6
CE
77
ENDCHAR

STARTCHAR b
ENCODING 98
SWIDTH 600 0
DWIDTH 9 0
BBX 8 10 0 0
BITMAP
E0
60
60
6E
73
63
63
63
73
EE
ENDCHAR

STARTCHAR c
ENCODING 99
SWIDTH 600 0
DWIDTH 9 0
BBX 7 7 1 0
BITMAP
7A
C6
C2
C0
C0
C6
7C
ENDCHAR

STARTCHAR d
ENCODING 100
SWIDTH 600 0
DWIDTH 9 0
BBX 8 10 1 0
BITMAP
0E
06
06
76
CE
C6
C6
C6
CE
77
ENDCHAR

STARTCHAR e
ENCODING 101
SWIDTH 600 0
DWIDTH 9 0
BBX 7 7 1 0
BITMAP
7C
C6
C6
FE
C0
C6
7C
ENDCHAR

STARTCHAR f
ENCODING 102
SWIDTH 600 0
DWIDTH 9 0
BBX 6 10 2 0
BITMAP
3C
60
60
FC
60
60
60
60
60
F8
ENDCHAR

STARTCHAR g
ENCODING 103
SWIDTH 600 0
DWIDTH 9 0
BBX 8 10 1 -3
BITMAP
77
CE
C6
C6
C6
CE
76
06
0C
78
ENDCHAR

STARTCHAR h
ENCODING 104
SWIDTH 600 0
DWIDTH 9 0
BBX 9 10 0 0
BITMAP
E000
6000
6000
6E00
7300
6300
6300
6300
6300
F780
ENDCHAR

STARTCHAR i
ENCODING 105
SWIDTH 600 0
DWIDTH 9 0
BBX 6 10 2 0
BITMAP
30
30
00
F0
30
30
30
30
30
FC
ENDCHAR

STARTCHAR j
ENCODING 106
SWIDTH 600 0
DWIDTH 9 0
BBX 6 13 1 -3
BITMAP
18
18
00
FC
0C
0C
0C
0C
0C
0C
0C
18
F0
ENDCHAR

STARTCHAR k
ENCODING 107
SWIDTH 600 0
DWIDTH 9 0
BBX 8 10 1 0
BITMAP
E0
60
60
6E
6C
78
78
6C
66
E7
ENDCHAR

STARTCHAR l
ENCODING 108
SWIDTH 600 0
DWIDTH 9 0
BBX 6 10 2 0
BITMAP
F0
30
30
30
30
30
30
30
30
FC
ENDCHAR

STARTCHAR m
ENCODING 109
SWIDTH 600 0
DWIDTH 9 0
BBX 9 7 0 0
BITMAP
DB00
7F80
6D80
6D80
6D80
6D80
ED80
ENDCHAR

STARTCHAR n
ENCODING 110
SWIDTH 600 0
DWIDTH 9 0
BBX 9 7 0 0
BITMAP
EE00
7300
6300
6300
6300
6300
F780
ENDCHAR

STARTCHAR o
ENCODING 111
SWIDTH 600 0
DWIDTH 9 0
BBX 7 7 1 0
BITMAP
7C
C6
C6
C6
C6
C6
7C
ENDCHAR

STARTCHAR p
ENCODING 112
SWIDTH 600 0
DWIDTH 9 0
BBX 8 10 0 -3
BITMAP
EE
73
63
63
63
73
6E
60
60
F8
ENDCHAR

STARTCHAR q
ENCODING 113
SWIDTH 600 0
DWIDTH 9 0
BBX 8 10 1 -3
BITMAP
77
CE
C6
C6
C6
CE
76
06
06
1F
ENDCHAR

STARTCHAR r
ENCODING 114
SWIDTH 600 0
DWIDTH 9 0
BBX 7 7 1 0
BITMAP
EE
70
60
60
60
60
FC
ENDCHAR

STARTCHAR s
ENCODING 115
SWIDTH 600 0
DWIDTH 9 0
BBX 7 7 1 0
BITMAP
7E
C6
C0
7C
06
C6
FC
ENDCHAR

STARTCHAR t
ENCODING 116
SWIDTH 600 0
DWIDTH 9 0
BBX 7 9 1 0
BITMAP
60
60
FC
60
60
60
60
66
3C
ENDCHAR

STARTCHAR u
ENCODING 117
SWIDTH 600 0
DWIDTH 9 0
BBX 9 7 0 0
BITMAP
E700
6300
6300
6300
6300
6700
3B80
ENDCHAR

STARTCHAR v
ENCODING 118
SWIDTH 600 0
DWIDTH 9 0
BBX 9 7 0 0
BITMAP
F780
6300
6300
3600
3600
1C00
1C00
ENDCHAR

STARTCHAR w
ENCODING 119
SWIDTH 600 0
DWIDTH 9 0
BBX 9 7 0 0
BITMAP
E380
6300
6B00
6B00
3600
3600
3600
ENDCHAR

STARTCHAR x
ENCODING 120
SWIDTH 600 0
DWIDTH 9 0
BBX 9 7 0 0
BITMAP
E380
3600
1C00
1C00
3600
6300
F780
ENDCHAR

STARTCHAR y
ENCODING 121
SWIDTH 600 0
DWIDTH 9 0
BBX 9 10 0 -3
BITMAP
F780
6300
6300
3600
3600
1C00
1800
1800
3000
F800
ENDCHAR

STARTCHAR z
ENCODING 122
SWIDTH 600 0
DWIDTH 9 0
BBX 7 7 1 0
BITMAP
FE
CC
D8
30
66
C6
FE
ENDCHAR

STARTCHAR braceleft
ENCODING 123
SWIDTH 600 0
DWIDTH 9 0
BBX 4 13 3 -3
BITMAP
30
60
60
60
60
60
C0
60
60
60
60
60
30
ENDCHAR

STARTCHAR bar
ENCODING 124
SWIDTH 600 0
DWIDTH 9 0
BBX 2 13 4 -3
BITMAP
C0
C0
C0
C0
C0
C0
C0
C0
C0
C0
C0
C0
C0
ENDCHAR

STARTCHAR braceright
ENCODING 125
SWIDTH 600 0
DWIDTH 9 0
BBX 4 13 2 -3
BITMAP
C0
60
60
60
60
60
30
60
60
60
60
60
C0
ENDCHAR

STARTCHAR asciitilde
ENCODING 126
SWIDTH 600 0
DWIDTH 9 0
BBX 7 4 1 2
BITMAP
62
F6
DE
8C
ENDCHAR

STARTCHAR space
ENCODING 160
SWIDTH 600 0
DWIDTH 10 0
BBX 0 0 0 0
BITMAP
ENDCHAR

STARTCHAR afii10023
ENCODING 161
SWIDTH 600 0
DWIDTH 9 0
BBX 8 12 0 0
BITMAP
66
66
00
FF
63
63
64
7C
64
63
63
FF
ENDCHAR

STARTCHAR afii10051
ENCODING 162
SWIDTH 600 0
DWIDTH 9 0
BBX 9 9 0 0
BITMAP
FC00
B400
B400
3000
3700
3980
3180
3180
7B00
ENDCHAR

STARTCHAR afii10052
ENCODING 163
SWIDTH 600 0
DWIDTH 9 0
BBX 9 12 0 0
BITMAP
0C00
1800
0000
FF80
3180
3180
3180
3000
3000
3000
3000
FC00
ENDCHAR

STARTCHAR afii10053
ENCODING 164
SWIDTH 600 0
DWIDTH 9 0
BBX 8 9 1 0
BITMAP
3D
67
C3
C0
FC
C0
C1
63
3E
ENDCHAR

STARTCHAR afii10054
ENCODING 165
SWIDTH 600 0
DWIDTH 9 0
BBX 7 9 1 0
BITMAP
7A
CE
C6
F0
7C
0E
C6
E6
BC
ENDCHAR

STARTCHAR afii10055
ENCODING 166
SWIDTH 600 0
DWIDTH 9 0
BBX 6 9 2 0
BITMAP
FC
30
30
30
30
30
30
30
FC
ENDCHAR

STARTCHAR afii10056
ENCODING 167
SWIDTH 600 0
DWIDTH 9 0
BBX 6 12 2 0
BITMAP
CC
CC
00
FC
30
30
30
30
30
30
30
FC
ENDCHAR

STARTCHAR afii10057
ENCODING 168
SWIDTH 600 0
DWIDTH 9 0
BBX 9 9 1 0
BITMAP
3F80
0600
0600
0600
0600
C600
C600
EC00
7800
ENDCHAR

STARTCHAR afii10058
ENCODING 169
SWIDTH 600 0
DWIDTH 9 0
BBX 10 9 0 0
BITMAP
7F00
3600
3600
3600
3780
36C0
36C0
B6C0
E780
ENDCHAR

STARTCHAR afii10059
ENCODING 170
SWIDTH 600 0
DWIDTH 9 0
BBX 10 9 0 0
BITMAP
EE00
6C00
6C00
6C00
7F80
6CC0
6CC0
6CC0
EF80
ENDCHAR

STARTCHAR afii10060
ENCODING 171
SWIDTH 600 0
DWIDTH 9 0
BBX 10 9 0 0
BITMAP
FC00
B400
B400
3000
3700
3980
3180
3180
7BC0
ENDCHAR

STARTCHAR afii10061
ENCODING 172
SWIDTH 600 0
DWIDTH 9 0
BBX 9 12 0 0
BITMAP
0600
0C00
0000
F380
6680
6400
6C00
7C00
6600
6600
6300
F380
ENDCHAR

STARTCHAR hyphen
ENCODING 173
SWIDTH 600 0
DWIDTH 9 0
BBX 7 2 1 4
BITMAP
FE
FE
ENDCHAR

STARTCHAR afii10062
ENCODING 174
SWIDTH 600 0
DWIDTH 9 0
BBX 9 12 0 0
BITMAP
3300
1E00
0000
F780
6300
6300
3600
3600
1C00
1C00
D800
F000
ENDCHAR

STARTCHAR afii10145
ENCODING 175
SWIDTH 600 0
DWIDTH 9 0
BBX 9 11 0 -2
BITMAP
F780
6300
6300
6300
6300
6300
6300
6300
FF80
0C00
0C00
ENDCHAR

STARTCHAR afii10017
ENCODING 176
SWIDTH 600 0
DWIDTH 9 0
BBX 9 9 0 0
BITMAP
7800
1C00
3400
3600
3600
7F00
6300
6300
E380
ENDCHAR

STARTCHAR afii10018
ENCODING 177
SWIDTH 600 0
DWIDTH 9 0
BBX 8 9 0 0
BITMAP
FF
63
63
60
7E
63
63
63
FE
ENDCHAR

STARTCHAR afii10019
ENCODING 178
SWIDTH 600 0
DWIDTH 9 0
BBX 8 9 0 0
BITMAP
FE
63
63
63
7E
63
63
63
FE
ENDCHAR

STARTCHAR afii10020
ENCODING 179
SWIDTH 600 0
DWIDTH 9 0
BBX 9 9 0 0
BITMAP
FF80
3180
3180
3180
3000
3000
3000
3000
FC00
ENDCHAR

STARTCHAR afii10021
ENCODING 180
SWIDTH 600 0
DWIDTH 9 0
BBX 9 11 0 -2
BITMAP
7F80
3300
3300
3300
3300
3300
6300
6300
FF80
C180
C180
ENDCHAR

STARTCHAR afii10022
ENCODING 181
SWIDTH 600 0
DWIDTH 9 0
BBX 8 9 0 0
BITMAP
FF
63
63
64
7C
64
63
63
FF
ENDCHAR

STARTCHAR afii10024
ENCODING 182
SWIDTH 600 0
DWIDTH 9 0
BBX 9 9 0 0
BITMAP
DD80
DD80
AA80
3E00
1C00
3E00
6B00
DD80
DD80
ENDCHAR

STARTCHAR afii10025
ENCODING 183
SWIDTH 600 0
DWIDTH 9 0
BBX 7 9 1 0
BITMAP
BC
EE
C6
06
3C
06
C6
C6
7C
ENDCHAR

STARTCHAR afii10026
ENCODING 184
SWIDTH 600 0
DWIDTH 9 0
BBX 9 9 0 0
BITMAP
F380
6700
6700
6F00
6B00
7B00
7300
7300
E780
ENDCHAR

STARTCHAR afii10027
ENCODING 185
SWIDTH 600 0
DWIDTH 9 0
BBX 9 12 0 0
BITMAP
3300
1E00
0000
F380
6700
6700
6F00
6B00
7B00
7300
7300
E780
ENDCHAR

STARTCHAR afii10028
ENCODING 186
SWIDTH 600 0
DWIDTH 9 0
BBX 9 9 0 0
BITMAP
F380
6680
6400
6C00
7C00
6600
6600
6300
F380
ENDCHAR

STARTCHAR afii10029
ENCODING 187
SWIDTH 600 0
DWIDTH 9 0
BBX 9 9 0 0
BITMAP
7F80
3300
3300
3300
3300
3300
3300
B300
E780
ENDCHAR

STARTCHAR afii10030
ENCODING 188
SWIDTH 600 0
DWIDTH 9 0
BBX 9 9 0 0
BITMAP
E380
7700
7700
7F00
7F00
6B00
6B00
6300
F780
ENDCHAR

STARTCHAR afii10031
ENCODING 189
SWIDTH 600 0
DWIDTH 9 0
BBX 9 9 0 0
BITMAP
F780
6300
6300
6300
7F00
6300
6300
6300
F780
ENDCHAR

STARTCHAR afii10032
ENCODING 190
SWIDTH 600 0
DWIDTH 9 0
BBX 8 9 1 0
BITMAP
3C
66
C3
C3
C3
C3
C3
66
3C
ENDCHAR

STARTCHAR afii10033
ENCODING 191
SWIDTH 600 0
DWIDTH 9 0
BBX 9 9 0 0
BITMAP
FF80
6300
6300
6300
6300
6300
6300
6300
F780
ENDCHAR

STARTCHAR afii10034
ENCODING 192
SWIDTH 600 0
DWIDTH 9 0
BBX 8 9 1 0
BITMAP
FC
66
63
63
66
7C
60
60
F8
ENDCHAR

STARTCHAR afii10035
ENCODING 193
SWIDTH 600 0
DWIDTH 9 0
BBX 8 9 1 0
BITMAP
3D
67
C3
C0
C0
C0
C1
63
3E
ENDCHAR

STARTCHAR afii10036
ENCODING 194
SWIDTH 600 0
DWIDTH 9 0
BBX 8 9 1 0
BITMAP
FF
DB
DB
18
18
18
18
18
7E
ENDCHAR

STARTCHAR afii10037
ENCODING 195
SWIDTH 600 0
DWIDTH 9 0
BBX 9 9 0 0
BITMAP
F780
6300
6300
3600
3600
1C00
1C00
D800
F000
ENDCHAR

STARTCHAR afii10038
ENCODING 196
SWIDTH 600 0
DWIDTH 9 0
BBX 8 9 1 0
BITMAP
3C
18
7E
DB
DB
DB
7E
18
3C
ENDCHAR

STARTCHAR afii10039
ENCODING 197
SWIDTH 600 0
DWIDTH 9 0
BBX 9 9 0 0
BITMAP
F780
6300
3600
1C00
1C00
3E00
3600
6300
F780
ENDCHAR

STARTCHAR afii10040
ENCODING 198
SWIDTH 600 0
DWIDTH 9 0
BBX 9 11 0 -2
BITMAP
F780
6300
6300
6300
6300
6300
6300
6300
FF80
0180
0180
ENDCHAR

STARTCHAR afii10041
ENCODING 199
SWIDTH 600 0
DWIDTH 9 0
BBX 9 9 0 0
BITMAP
F780
6300
6300
6300
6700
3B00
0300
0300
0F80
ENDCHAR

STARTCHAR afii10042
ENCODING 200
SWIDTH 600 0
DWIDTH 9 0
BBX 10 9 0 0
BITMAP
EDC0
6D80
6D80
6D80
6D80
6D80
6D80
6D80
FFC0
ENDCHAR

STARTCHAR afii10043
ENCODING 201
SWIDTH 600 0
DWIDTH 9 0
BBX 10 11 0 -2
BITMAP
EDC0
6D80
6D80
6D80
6D80
6D80
6D80
6D80
FFC0
00C0
00C0
ENDCHAR

STARTCHAR afii10044
ENCODING 202
SWIDTH 600 0
DWIDTH 9 0
BBX 9 9 0 0
BITMAP
FC00
D800
D800
D800
1F00
1980
1980
1980
3F00
ENDCHAR

STARTCHAR afii10045
ENCODING 203
SWIDTH 600 0
DWIDTH 9 0
BBX 10 9 0 0
BITMAP
F3C0
6180
6180
6180
7D80
6780
6780
6780
FDC0
ENDCHAR

STARTCHAR afii10046
ENCODING 204
SWIDTH 600 0
DWIDTH 9 0
BBX 8 9 1 0
BITMAP
F0
60
60
60
7E
63
63
63
FE
ENDCHAR

STARTCHAR afii10047
ENCODING 205
SWIDTH 600 0
DWIDTH 9 0
BBX 8 9 1 0
BITMAP
BC
E6
C3
03
3F
03
C3
C6
7C
ENDCHAR

STARTCHAR afii10048
ENCODING 206
SWIDTH 600 0
DWIDTH 9 0
BBX 10 9 0 0
BITMAP
E780
6CC0
6CC0
7CC0
7CC0
6CC0
6CC0
6CC0
E780
ENDCHAR

STARTCHAR afii10049
ENCODING 207
SWIDTH 600 0
DWIDTH 9 0
BBX 9 9 0 0
BITMAP
3F80
6300
6300
6300
3F00
3300
3300
6300
E780
ENDCHAR

STARTCHAR afii10065
ENCODING 208
SWIDTH 600 0
DWIDTH 9 0
BBX 8 7 1 0
BITMAP
7C
06
06
7E
C6
CE
77
ENDCHAR

STARTCHAR afii10066
ENCODING 209
SWIDTH 600 0
DWIDTH 9 0
BBX 7 10 1 0
BITMAP
06
7E
C0
BC
E6
C6
C6
C6
C6
7C
ENDCHAR

STARTCHAR afii10067
ENCODING 210
SWIDTH 600 0
DWIDTH 9 0
BBX 7 7 1 0
BITMAP
FC
66
66
7C
66
66
FC
ENDCHAR

STARTCHAR afii10068
ENCODING 211
SWIDTH 600 0
DWIDTH 9 0
BBX 9 7 0 0
BITMAP
FF80
3180
3180
3180
3000
3000
FC00
ENDCHAR

STARTCHAR afii10069
ENCODING 212
SWIDTH 600 0
DWIDTH 9 0
BBX 8 8 1 -1
BITMAP
7F
36
36
36
66
C2
FF
C3
ENDCHAR

STARTCHAR afii10070
ENCODING 213
SWIDTH 600 0
DWIDTH 9 0
BBX 7 7 1 0
BITMAP
7C
C6
C6
FE
C0
C6
7C
ENDCHAR

STARTCHAR afii10072
ENCODING 214
SWIDTH 600 0
DWIDTH 9 0
BBX 9 7 0 0
BITMAP
DD80
EB80
BE80
1C00
7F00
EB80
DD80
ENDCHAR

STARTCHAR afii10073
ENCODING 215
SWIDTH 600 0
DWIDTH 9 0
BBX 7 7 1 0
BITMAP
BC
C6
86
1C
06
C6
7C
ENDCHAR

STARTCHAR afii10074
ENCODING 216
SWIDTH 600 0
DWIDTH 9 0
BBX 9 7 0 0
BITMAP
F380
6700
6F00
6B00
7B00
7300
E780
ENDCHAR

STARTCHAR afii10075
ENCODING 217
SWIDTH 600 0
DWIDTH 9 0
BBX 9 10 0 0
BITMAP
3300
1E00
0000
F380
6700
6F00
6B00
7B00
7300
E780
ENDCHAR

STARTCHAR afii10076
ENCODING 218
SWIDTH 600 0
DWIDTH 9 0
BBX 8 7 1 0
BITMAP
F3
67
6D
78
6C
66
F7
ENDCHAR

STARTCHAR afii10077
ENCODING 219
SWIDTH 600 0
DWIDTH 9 0
BBX 9 7 0 0
BITMAP
7F80
3300
3300
3300
3300
B300
E780
ENDCHAR

STARTCHAR afii10078
ENCODING 220
SWIDTH 600 0
DWIDTH 9 0
BBX 9 7 0 0
BITMAP
E380
7700
7F00
6B00
6300
6300
F780
ENDCHAR

STARTCHAR afii10079
ENCODING 221
SWIDTH 600 0
DWIDTH 9 0
BBX 9 7 0 0
BITMAP
F780
6300
6300
7F00
6300
6300
F780
ENDCHAR

STARTCHAR afii10080
ENCODING 222
SWIDTH 600 0
DWIDTH 9 0
BBX 7 7 1 0
BITMAP
7C
C6
C6
C6
C6
C6
7C
ENDCHAR

STARTCHAR afii10081
ENCODING 223
SWIDTH 600 0
DWIDTH 9 0
BBX 9 7 0 0
BITMAP
FF80
6300
6300
6300
6300
6300
F780
ENDCHAR

STARTCHAR afii10082
ENCODING 224
SWIDTH 600 0
DWIDTH 9 0
BBX 8 10 0 -3
BITMAP
EE
73
63
63
63
73
6E
60
60
F8
ENDCHAR

STARTCHAR afii10083
ENCODING 225
SWIDTH 600 0
DWIDTH 9 0
BBX 7 7 1 0
BITMAP
7A
C6
C2
C0
C0
C6
7C
ENDCHAR

STARTCHAR afii10084
ENCODING 226
SWIDTH 600 0
DWIDTH 9 0
BBX 8 7 1 0
BITMAP
FF
DB
DB
18
18
18
7E
ENDCHAR

STARTCHAR afii10085
ENCODING 227
SWIDTH 600 0
DWIDTH 9 0
BBX 9 9 0 -2
BITMAP
F780
6300
6300
3600
3600
1C00
1C00
D800
F000
ENDCHAR

STARTCHAR afii10086
ENCODING 228
SWIDTH 600 0
DWIDTH 9 0
BBX 8 11 1 -2
BITMAP
38
18
7E
DB
DB
DB
DB
DB
7E
18
3C
ENDCHAR

STARTCHAR afii10087
ENCODING 229
SWIDTH 600 0
DWIDTH 9 0
BBX 9 7 0 0
BITMAP
E380
3600
1C00
1C00
3600
6300
F780
ENDCHAR

STARTCHAR afii10088
ENCODING 230
SWIDTH 600 0
DWIDTH 9 0
BBX 9 8 0 -1
BITMAP
F780
6300
6300
6300
6300
6300
FF80
0180
ENDCHAR

STARTCHAR afii10089
ENCODING 231
SWIDTH 600 0
DWIDTH 9 0
BBX 9 7 0 0
BITMAP
F780
6300
6300
7700
3B00
0300
0780
ENDCHAR

STARTCHAR afii10090
ENCODING 232
SWIDTH 600 0
DWIDTH 9 0
BBX 10 7 0 0
BITMAP
EDC0
6D80
6D80
6D80
6D80
6D80
FFC0
ENDCHAR

STARTCHAR afii10091
ENCODING 233
SWIDTH 600 0
DWIDTH 9 0
BBX 10 8 0 -1
BITMAP
EDC0
6D80
6D80
6D80
6D80
6D80
FFC0
00C0
ENDCHAR

STARTCHAR afii10092
ENCODING 234
SWIDTH 600 0
DWIDTH 9 0
BBX 9 7 0 0
BITMAP
FC00
D800
D800
1F00
1980
1980
3F00
ENDCHAR

STARTCHAR afii10093
ENCODING 235
SWIDTH 600 0
DWIDTH 9 0
BBX 9 7 0 0
BITMAP
F380
6300
6300
7B00
6F00
6F00
FB80
ENDCHAR

STARTCHAR afii10094
ENCODING 236
SWIDTH 600 0
DWIDTH 9 0
BBX 7 7 1 0
BITMAP
F0
60
60
7C
66
66
FC
ENDCHAR

STARTCHAR afii10095
ENCODING 237
SWIDTH 600 0
DWIDTH 9 0
BBX 7 7 1 0
BITMAP
BC
C6
86
3E
06
C6
7C
ENDCHAR

STARTCHAR afii10096
ENCODING 238
SWIDTH 600 0
DWIDTH 9 0
BBX 9 7 0 0
BITMAP
F700
6D80
6D80
7D80
6D80
6D80
F700
ENDCHAR

STARTCHAR afii10097
ENCODING 239
SWIDTH 600 0
DWIDTH 9 0
BBX 8 7 1 0
BITMAP
7F
C6
C6
3E
66
66
CF
ENDCHAR

STARTCHAR afii61352
ENCODING 240
SWIDTH 600 0
DWIDTH 9 0
BBX 9 9 0 0
BITMAP
CE00
6580
6580
7580
5580
5C00
4D80
4C00
E400
ENDCHAR

STARTCHAR afii10071
ENCODING 241
SWIDTH 600 0
DWIDTH 9 0
BBX 7 10 1 0
BITMAP
66
66
00
7C
C6
C6
FE
C0
C6
7C
ENDCHAR

STARTCHAR afii10099
ENCODING 242
SWIDTH 600 0
DWIDTH 9 0
BBX 8 13 0 -3
BITMAP
60
FC
60
6E
73
63
63
63
63
F3
03
07
3E
ENDCHAR

STARTCHAR afii10100
ENCODING 243
SWIDTH 600 0
DWIDTH 9 0
BBX 9 10 0 0
BITMAP
0C00
1800
0000
FF80
3180
3180
3180
3000
3000
FC00
ENDCHAR

STARTCHAR afii10101
ENCODING 244
SWIDTH 600 0
DWIDTH 9 0
BBX 7 7 1 0
BITMAP
7A
C6
C2
F8
C0
C6
7C
ENDCHAR

STARTCHAR afii10102
ENCODING 245
SWIDTH 600 0
DWIDTH 9 0
BBX 7 7 1 0
BITMAP
7E
C6
C0
7C
06
C6
FC
ENDCHAR

STARTCHAR afii10103
ENCODING 246
SWIDTH 600 0
DWIDTH 9 0
BBX 8 10 1 0
BITMAP
18
18
00
78
18
18
18
18
18
FF
ENDCHAR

STARTCHAR afii10104
ENCODING 247
SWIDTH 600 0
DWIDTH 9 0
BBX 8 10 1 0
BITMAP
66
66
00
78
18
18
18
18
18
FF
ENDCHAR

STARTCHAR afii10105
ENCODING 248
SWIDTH 600 0
DWIDTH 9 0
BBX 6 13 2 -3
BITMAP
18
18
00
FC
0C
0C
0C
0C
0C
0C
0C
18
F0
ENDCHAR

STARTCHAR afii10106
ENCODING 249
SWIDTH 600 0
DWIDTH 9 0
BBX 10 7 0 0
BITMAP
7F00
3600
3600
3780
36C0
B6C0
E780
ENDCHAR

STARTCHAR afii10107
ENCODING 250
SWIDTH 600 0
DWIDTH 9 0
BBX 9 7 0 0
BITMAP
EE00
6C00
6C00
7F00
6D80
6D80
EF00
ENDCHAR

STARTCHAR afii10108
ENCODING 251
SWIDTH 600 0
DWIDTH 9 0
BBX 9 10 0 0
BITMAP
6000
FC00
6000
6E00
7700
6300
6300
6300
6300
F780
ENDCHAR

STARTCHAR afii10109
ENCODING 252
SWIDTH 600 0
DWIDTH 9 0
BBX 8 10 1 0
BITMAP
0C
18
00
F3
67
6D
78
6C
66
F7
ENDCHAR

STARTCHAR section
ENCODING 253
SWIDTH 600 0
DWIDTH 9 0
BBX 8 11 1 -1
BITMAP
1E
36
30
78
CC
66
33
1E
0C
6C
78
ENDCHAR

STARTCHAR afii10110
ENCODING 254
SWIDTH 600 0
DWIDTH 9 0
BBX 9 12 0 -2
BITMAP
3300
1E00
0000
F780
6300
6300
3600
3600
1C00
1C00
D800
F000
ENDCHAR

STARTCHAR afii10193
ENCODING 255
SWIDTH 600 0
DWIDTH 9 0
BBX 9 9 0 -2
BITMAP
F780
6300
6300
6300
6300
6300
FF80
0C00
0C00
ENDCHAR
ENDFONT
